<?xml version="1.0" encoding="UTF-8"?>
<svg id="Layer_2" data-name="Layer 2" xmlns="http://www.w3.org/2000/svg" viewBox="0 0 1267.48 344.24">
  <g id="Layer_1-2" data-name="Layer 1">
    <g>
      <g>
        <polygon points="116.37 197.44 116.37 307.15 66.84 278.59 66.84 226.12 116.37 197.44"/>
        <polygon points="163.61 170.08 163.61 344.24 221.82 310.63 221.82 205.99 287.3 168.18 280.22 102.7 163.61 170.08"/>
        <polygon points="0 112.9 0 187.53 66.84 226.12 66.84 151.5 262.6 38.47 195.97 0 0 112.9"/>
      </g>
      <g>
        <path d="M515.67,103.72v36.34h-114.61v-36.34h114.61ZM429.35,55.95h46.99v187.17c0,6.32.97,11.14,2.92,14.47,1.95,3.33,4.52,5.6,7.72,6.81,3.2,1.21,6.75,1.82,10.64,1.82,2.94,0,5.65-.21,8.11-.65,2.47-.43,4.35-.82,5.65-1.17l7.92,36.73c-2.51.87-6.08,1.82-10.71,2.86-4.63,1.04-10.28,1.64-16.94,1.82-11.77.35-22.37-1.45-31.8-5.39-9.43-3.94-16.9-10.06-22.39-18.37-5.5-8.31-8.2-18.69-8.11-31.15V55.95Z"/>
        <path d="M544.03,303.09V103.72h45.56v33.23h2.08c3.64-11.51,9.89-20.4,18.76-26.67,8.87-6.27,19.01-9.41,30.44-9.41,2.59,0,5.51.11,8.76.33,3.25.22,5.95.54,8.11.97v43.22c-1.99-.69-5.13-1.32-9.41-1.88-4.28-.56-8.41-.85-12.4-.85-8.57,0-16.25,1.84-23.04,5.52-6.79,3.68-12.14,8.76-16.03,15.25s-5.84,13.97-5.84,22.46v117.21h-46.99Z"/>
        <path d="M758.01,306.99c-19.99,0-37.23-4.17-51.73-12.52-14.49-8.35-25.64-20.21-33.42-35.57-7.79-15.36-11.68-33.47-11.68-54.32s3.91-38.53,11.75-54.06c7.83-15.53,18.8-27.65,32.9-36.34,14.1-8.7,30.68-13.04,49.71-13.04,12.28,0,23.9,1.97,34.85,5.91,10.95,3.94,20.64,10.02,29.07,18.24,8.44,8.22,15.08,18.67,19.93,31.35,4.84,12.68,7.27,27.76,7.27,45.24v14.41h-163.42v-31.67h118.38c-.09-9-2.04-17.02-5.84-24.08-3.81-7.05-9.11-12.61-15.9-16.68-6.8-4.07-14.69-6.1-23.69-6.1-9.61,0-18.04,2.31-25.31,6.94-7.27,4.63-12.92,10.69-16.94,18.17-4.02,7.49-6.08,15.69-6.17,24.6v27.65c0,11.6,2.12,21.53,6.36,29.79,4.24,8.27,10.17,14.58,17.78,18.95,7.61,4.37,16.53,6.55,26.74,6.55,6.84,0,13.02-.97,18.56-2.92,5.54-1.95,10.34-4.82,14.41-8.63,4.07-3.81,7.14-8.52,9.22-14.15l43.87,4.93c-2.77,11.6-8.03,21.7-15.77,30.31-7.75,8.61-17.63,15.27-29.66,19.99-12.03,4.72-25.79,7.07-41.28,7.07Z"/>
        <path d="M922.4,186.27v116.82h-46.99V103.72h44.91v33.88h2.34c4.59-11.16,11.92-20.03,22-26.61,10.08-6.58,22.56-9.86,37.45-9.86,13.76,0,25.76,2.94,36.02,8.83,10.25,5.89,18.21,14.41,23.88,25.57,5.67,11.16,8.46,24.71,8.37,40.63v126.95h-46.99v-119.68c0-13.32-3.44-23.75-10.32-31.28-6.88-7.53-16.38-11.29-28.49-11.29-8.22,0-15.51,1.8-21.87,5.39s-11.34,8.76-14.93,15.51c-3.59,6.75-5.39,14.93-5.39,24.53Z"/>
        <path d="M1161.3,306.6c-15.66,0-29.68-4.02-42.06-12.07-12.38-8.05-22.15-19.73-29.33-35.05-7.18-15.32-10.77-33.92-10.77-55.81s3.65-40.87,10.97-56.14c7.31-15.27,17.2-26.83,29.66-34.66,12.46-7.83,26.35-11.75,41.66-11.75,11.68,0,21.29,1.97,28.82,5.91,7.53,3.94,13.5,8.65,17.91,14.15,4.41,5.5,7.83,10.67,10.25,15.51h1.95V37.26h47.12v265.83h-46.21v-31.41h-2.86c-2.42,4.85-5.93,9.97-10.51,15.38-4.59,5.41-10.64,10.02-18.17,13.82s-17,5.71-28.43,5.71ZM1174.41,268.05c9.95,0,18.43-2.7,25.44-8.11,7.01-5.41,12.33-12.96,15.97-22.65,3.63-9.69,5.45-20.98,5.45-33.88s-1.8-24.1-5.39-33.62c-3.59-9.52-8.87-16.92-15.84-22.2-6.97-5.28-15.51-7.92-25.63-7.92s-19.21,2.73-26.22,8.18c-7.01,5.45-12.29,12.98-15.84,22.58-3.55,9.61-5.32,20.6-5.32,32.97s1.8,23.56,5.39,33.29c3.59,9.74,8.91,17.39,15.96,22.97,7.05,5.58,15.73,8.37,26.03,8.37Z"/>
      </g>
    </g>
  </g>
</svg>