<?xml version="1.0" encoding="UTF-8"?>
<svg id="Layer_2" xmlns="http://www.w3.org/2000/svg" viewBox="0 0 148 36.12">
  <defs>
    <style>
      .cls-1 {
        fill: #001428;
      }
    </style>
  </defs>
  <g id="Layer_1-2" data-name="Layer_1">
    <g>
      <g>
        <path class="cls-1" d="M81.75,16.38v-5.8h3.63v-2.81h-3.63v-3.68h-2.81v12.29c0,3.24,2.63,5.86,5.87,5.87h.6v-2.81h-.6c-1.69,0-3.05-1.37-3.05-3.06"/>
        <path class="cls-1" d="M118.87,7.49h0c-4.14,0-7.5,3.36-7.5,7.51,0,4.14,3.36,7.5,7.51,7.5,4.14,0,7.5-3.36,7.5-7.51h0c0-4.14-3.36-7.5-7.5-7.5M118.87,19.69c-2.59,0-4.69-2.1-4.69-4.69s2.1-4.69,4.69-4.69,4.69,2.1,4.69,4.69-2.13,4.69-4.69,4.69"/>
        <path class="cls-1" d="M140.5,7.5c-4.14,0-7.51,3.35-7.51,7.5,0,4.14,3.35,7.51,7.5,7.51,1.76,0,3.47-.62,4.82-1.75v1.48h2.69v-7.02c0-.07,0-.14,0-.22,0-4.14-3.36-7.5-7.5-7.5M140.5,19.7c-2.59,0-4.69-2.1-4.69-4.69s2.1-4.69,4.69-4.69,4.69,2.1,4.69,4.69-2.13,4.69-4.69,4.69"/>
        <path class="cls-1" d="M103.23,13.63v8.6h2.81v-8.6c0-1.68,1.37-3.05,3.05-3.06h1.34v-2.81h-1.33c-3.24,0-5.86,2.63-5.87,5.87"/>
        <rect class="cls-1" x="128.26" y="4.1" width="2.82" height="18.41"/>
        <path class="cls-1" d="M58.11,8.86c-2.47-2.11-6.17-1.82-8.28.65-1.12-1.31-2.75-2.06-4.47-2.06-3.21,0-5.84,2.63-5.84,5.87v8.92h2.81v-9.01c.02-1.69,1.41-3.04,3.1-3.01,1.69.02,3.04,1.41,3.01,3.1v8.92h2.81v-8.92c0-1.69,1.37-3.05,3.05-3.05s3.05,1.37,3.05,3.05v8.92h2.81v-8.92c0-1.72-.75-3.34-2.06-4.46"/>
        <path class="cls-1" d="M69.58,7.5h0c-4.16,0-7.53,3.36-7.53,7.5s3.36,7.5,7.5,7.5,7.5-3.36,7.5-7.5c.02-4.14-3.34-7.5-7.48-7.5M69.58,19.69c-2.59,0-4.69-2.1-4.69-4.69s2.1-4.69,4.69-4.69,4.69,2.1,4.69,4.69-2.13,4.69-4.69,4.69"/>
        <path class="cls-1" d="M93.84,7.5h0c-4.15,0-7.5,3.36-7.5,7.51,0,4.14,3.36,7.5,7.51,7.5,4.14,0,7.5-3.36,7.5-7.51,0-4.14-3.36-7.5-7.5-7.5M93.84,19.69c-2.59,0-4.69-2.1-4.69-4.69s2.1-4.69,4.69-4.69,4.69,2.1,4.69,4.69-2.13,4.69-4.69,4.69"/>
        <path class="cls-1" d="M15.01,0C6.72,0,0,6.72,0,15.01s6.72,15.01,15.01,15.01,15.01-6.72,15.01-15.01S23.41,0,15.01,0M24.45,22.13c-1.36-4.43-3.1-7.12-5.08-7.12-1.61,0-3.11,1.82-4.35,4.93-1.24-3.11-2.74-4.93-4.37-4.93-1.96,0-3.7,2.69-5.07,7.12h-1.01L10.55,3.75l4.46,13.73,4.46-13.73,5.97,18.39h-1Z"/>
      </g>
    </g>
  </g>
</svg>